<?xml version="1.0" standalone="no"?>
<!DOCTYPE svg PUBLIC "-//W3C//DTD SVG 20010904//EN"
 "http://www.w3.org/TR/2001/REC-SVG-20010904/DTD/svg10.dtd">
<svg version="1.0" xmlns="http://www.w3.org/2000/svg"
 width="320.000000pt" height="320.000000pt" viewBox="0 0 320.000000 320.000000"
 preserveAspectRatio="xMidYMid meet">

<g transform="translate(0.000000,320.000000) scale(0.100000,-0.100000)"
fill="#000000" stroke="none">
<path d="M1410 3100 c-209 -29 -438 -112 -604 -218 -185 -119 -372 -309 -478
-487 -93 -156 -141 -276 -184 -460 -25 -109 -28 -138 -28 -315 -1 -211 13
-304 71 -478 84 -255 262 -513 466 -677 411 -331 924 -427 1417 -265 435 142
792 491 939 919 34 98 69 247 80 339 13 107 -1 348 -29 474 -127 582 -571
1023 -1159 1149 -110 23 -383 34 -491 19z m-382 -272 c168 -41 224 -204 135
-388 -40 -83 -160 -198 -253 -243 -240 -115 -450 -30 -450 182 0 180 175 382
383 442 74 21 122 23 185 7z m1077 -743 c112 -57 175 -164 175 -298 0 -129
-71 -237 -193 -293 -53 -24 -68 -26 -145 -22 -101 5 -151 26 -216 91 -66 67
-90 126 -90 227 -1 110 25 170 100 240 75 68 138 91 235 87 61 -3 89 -10 134
-32z m-613 -542 c55 -112 196 -224 323 -257 182 -48 356 3 497 145 l77 77 84
-19 c104 -23 282 -77 412 -124 55 -20 108 -39 118 -42 22 -7 19 -30 -19 -149
-117 -360 -410 -693 -759 -859 -208 -99 -381 -138 -615 -138 -245 0 -437 42
-647 143 -272 132 -523 381 -662 659 -49 96 -114 283 -109 313 2 17 23 28 98
55 389 141 728 213 1105 236 28 2 55 4 62 5 6 1 22 -19 35 -45z"/>
<path d="M1855 2021 c-91 -42 -144 -125 -145 -227 -1 -226 272 -337 426 -172
66 70 86 151 59 243 -20 71 -89 144 -151 163 -60 17 -142 15 -189 -7z m200
-19 c162 -79 178 -302 29 -400 -170 -113 -390 34 -353 235 28 146 192 230 324
165z"/>
</g>
</svg>
